<svg width="188" height="212" viewBox="0 0 188 212" fill="none" xmlns="http://www.w3.org/2000/svg">
<g clip-path="url(#clip0_450_26)">
<path d="M56.4 163.111V172.889C56.4 175.482 55.0795 177.969 52.7291 179.803C50.3786 181.637 47.1907 182.667 43.8667 182.667V153.333C47.1907 153.333 50.3786 154.363 52.7291 156.197C55.0795 158.031 56.4 160.518 56.4 163.111ZM188 133.778V202.222C188 204.815 186.68 207.302 184.329 209.136C181.979 210.97 178.791 212 175.467 212H12.5333C9.20929 212 6.02138 210.97 3.67093 209.136C1.32047 207.302 0 204.815 0 202.222V133.778C0 131.185 1.32047 128.698 3.67093 126.864C6.02138 125.03 9.20929 124 12.5333 124H175.467C178.791 124 181.979 125.03 184.329 126.864C186.68 128.698 188 131.185 188 133.778ZM68.9333 163.111C68.9333 157.925 66.2924 152.951 61.5915 149.283C56.8906 145.616 50.5148 143.556 43.8667 143.556H37.6C35.938 143.556 34.344 144.071 33.1688 144.987C31.9936 145.904 31.3333 147.148 31.3333 148.444V187.556C31.3333 188.852 31.9936 190.096 33.1688 191.013C34.344 191.929 35.938 192.444 37.6 192.444H43.8667C50.5148 192.444 56.8906 190.384 61.5915 186.717C66.2924 183.049 68.9333 178.075 68.9333 172.889V163.111ZM94 163.111V153.333H106.533C108.195 153.333 109.789 152.818 110.965 151.901C112.14 150.985 112.8 149.741 112.8 148.444C112.8 147.148 112.14 145.904 110.965 144.987C109.789 144.071 108.195 143.556 106.533 143.556H87.7333C86.0713 143.556 84.4774 144.071 83.3021 144.987C82.1269 145.904 81.4667 147.148 81.4667 148.444V187.556C81.4667 188.852 82.1269 190.096 83.3021 191.013C84.4774 191.929 86.0713 192.444 87.7333 192.444H106.533C108.195 192.444 109.789 191.929 110.965 191.013C112.14 190.096 112.8 188.852 112.8 187.556C112.8 186.259 112.14 185.015 110.965 184.099C109.789 183.182 108.195 182.667 106.533 182.667H94V172.889H100.267C101.929 172.889 103.523 172.374 104.698 171.457C105.873 170.54 106.533 169.297 106.533 168C106.533 166.703 105.873 165.46 104.698 164.543C103.523 163.626 101.929 163.111 100.267 163.111H94ZM158.366 143.739C156.767 143.387 155.054 143.546 153.604 144.179C152.154 144.813 151.086 145.87 150.635 147.118L142.567 169.497L134.498 147.118C134.042 145.875 132.973 144.824 131.525 144.194C130.078 143.564 128.369 143.408 126.774 143.758C125.178 144.109 123.826 144.939 123.013 146.065C122.2 147.192 121.992 148.524 122.435 149.771L136.535 188.882C136.905 189.907 137.695 190.81 138.784 191.453C139.873 192.096 141.201 192.444 142.567 192.444C143.932 192.444 145.261 192.096 146.349 191.453C147.438 190.81 148.228 189.907 148.598 188.882L162.698 149.771C163.149 148.523 162.946 147.186 162.134 146.055C161.321 144.924 159.966 144.091 158.366 143.739Z" fill="#F4F4F0"/>
</g>
<path d="M183.729 8.3279C183.605 6.23125 182.717 4.25295 181.234 2.7678C179.75 1.28266 177.773 0.393837 175.679 0.269737C137.627 -1.96824 106.961 9.82227 93.6461 31.8303C84.9742 46.1305 84.6742 63.4123 92.6032 79.9504C88.7441 84.8786 85.7755 90.4441 83.8313 96.3957L74.788 87.3436C79.924 75.3529 79.3811 62.9546 73.0736 52.5298C63.0874 36.0059 40.3434 27.1684 12.242 28.7915C10.1462 28.9157 8.16885 29.8056 6.68497 31.2922C5.20109 32.7788 4.31387 34.7589 4.19157 36.8568C2.56292 64.9853 11.3919 87.7512 27.8856 97.747C33.4796 101.16 39.9069 102.959 46.458 102.945C52.0432 102.899 57.5606 101.715 62.6731 99.4631L81.1383 117.975V134.42C81.1383 136.695 82.0414 138.878 83.6489 140.487C85.2565 142.096 87.4368 143 89.7102 143C91.9836 143 94.1638 142.096 95.7714 140.487C97.3789 138.878 98.282 136.695 98.282 134.42V113.334C98.2644 105.664 100.634 98.1797 105.061 91.9197C112.233 95.3198 120.056 97.1226 127.991 97.2036C136.528 97.2229 144.906 94.8822 152.199 90.4396C174.179 77.1118 185.972 46.4165 183.729 8.3279ZM36.7646 83.0679C27.3427 77.3478 21.6353 63.4337 21.171 45.7944C38.7933 46.2592 52.7012 51.9721 58.4086 61.4031C60.6406 65.037 61.5561 69.3287 61.0016 73.5582L52.9083 65.4286C51.298 63.8167 49.1139 62.9112 46.8366 62.9112C44.5592 62.9112 42.3752 63.8167 40.7648 65.4286C39.1545 67.0404 38.2498 69.2266 38.2498 71.5062C38.2498 73.7857 39.1545 75.9719 40.7648 77.5837L48.8652 85.692C44.6513 86.2128 40.3854 85.2877 36.7646 83.0679ZM143.32 75.7891C135.705 80.4009 126.891 81.2732 117.74 78.4775L144.349 51.8505C145.959 50.2387 146.864 48.0525 146.864 45.773C146.864 43.4934 145.959 41.3073 144.349 39.6954C142.738 38.0835 140.554 37.178 138.277 37.178C136 37.178 133.815 38.0835 132.205 39.6954L105.597 66.3223C102.832 57.1988 103.704 48.3398 108.283 40.7536C117.354 25.7384 138.748 17.1583 166.371 17.1583H166.857C166.957 45.0437 158.385 66.6226 143.32 75.7891Z" fill="#F4F4F0"/>
<defs>
<clipPath id="clip0_450_26">
<rect y="124" width="188" height="88" rx="44" fill="white"/>
</clipPath>
</defs>
</svg>
