<svg width="310" height="248" viewBox="0 0 310 248" fill="none" xmlns="http://www.w3.org/2000/svg">
<path d="M254.484 153.503C242.121 161.018 227.922 164.971 213.454 164.924C201.333 164.828 189.349 162.349 178.185 157.628C169.58 169.775 164.976 184.302 165.011 199.187V237.202C165.014 238.615 164.726 240.015 164.166 241.313C163.605 242.61 162.784 243.779 161.753 244.746C160.722 245.713 159.503 246.458 158.171 246.934C156.84 247.411 155.425 247.608 154.015 247.514C151.364 247.283 148.899 246.059 147.113 244.087C145.327 242.115 144.353 239.54 144.386 236.879V220.844L94.602 171.06C87.2014 173.821 79.3747 175.265 71.4762 175.327C60.6026 175.354 49.9325 172.378 40.6418 166.729C12.5531 149.661 -2.56757 110.384 0.358597 61.6185C0.50593 59.0956 1.57453 56.7147 3.36152 54.9277C5.14851 53.1407 7.52946 52.0721 10.0523 51.9248C58.8176 49.0502 98.0953 64.1193 115.111 92.208C121.796 103.218 124.715 116.105 123.425 128.92C123.345 129.913 122.979 130.862 122.371 131.651C121.764 132.441 120.94 133.037 120.001 133.368C119.061 133.7 118.046 133.752 117.078 133.518C116.109 133.285 115.229 132.776 114.544 132.053L89.7938 106.143C87.8441 104.29 85.2479 103.273 82.5588 103.307C79.8697 103.342 77.3004 104.425 75.3988 106.327C73.4971 108.229 72.4136 110.798 72.3791 113.487C72.3447 116.176 73.3621 118.772 75.2144 120.722L144.669 191.943C144.746 190.937 144.837 189.932 144.94 188.939C147.195 169.819 155.632 151.959 168.968 138.073L234.182 69.1595C236.117 67.2262 237.204 64.6034 237.206 61.868C237.207 59.1326 236.121 56.5088 234.188 54.5738C232.255 52.6387 229.632 51.551 226.897 51.5498C224.161 51.5486 221.537 52.634 219.602 54.5673L156.438 121.367C155.806 122.036 155.006 122.524 154.121 122.78C153.236 123.036 152.299 123.05 151.407 122.821C150.515 122.592 149.701 122.129 149.048 121.478C148.396 120.828 147.93 120.015 147.698 119.124C141.588 96.5908 144.282 74.1611 155.948 54.9025C178.971 16.9009 232.545 -3.44047 299.266 0.478283C301.789 0.625616 304.17 1.69422 305.957 3.48121C307.744 5.26819 308.813 7.64915 308.96 10.172C312.827 76.9068 292.486 130.48 254.484 153.503Z" fill="#F4F4F0"/>
</svg>
