<svg width="180" height="143" viewBox="0 0 180 143" fill="none" xmlns="http://www.w3.org/2000/svg">
<path d="M179.729 8.3279C179.605 6.23125 178.717 4.25295 177.234 2.7678C175.75 1.28266 173.773 0.393837 171.679 0.269737C133.627 -1.96824 102.961 9.82227 89.6461 31.8303C80.9742 46.1305 80.6742 63.4123 88.6032 79.9504C84.7441 84.8786 81.7755 90.4441 79.8313 96.3957L70.788 87.3436C75.924 75.3529 75.3811 62.9546 69.0736 52.5298C59.0874 36.0059 36.3434 27.1684 8.24198 28.7915C6.14619 28.9157 4.16885 29.8056 2.68497 31.2922C1.20109 32.7788 0.313865 34.7589 0.191572 36.8568C-1.43708 64.9853 7.39193 87.7512 23.8856 97.747C29.4796 101.16 35.9069 102.959 42.458 102.945C48.0432 102.899 53.5606 101.715 58.6731 99.4631L77.1383 117.975V134.42C77.1383 136.695 78.0414 138.878 79.6489 140.487C81.2565 142.096 83.4368 143 85.7102 143C87.9836 143 90.1638 142.096 91.7714 140.487C93.3789 138.878 94.282 136.695 94.282 134.42V113.334C94.2644 105.664 96.6337 98.1797 101.061 91.9197C108.233 95.3198 116.056 97.1226 123.991 97.2036C132.528 97.2229 140.906 94.8822 148.199 90.4396C170.179 77.1118 181.972 46.4165 179.729 8.3279ZM32.7646 83.0679C23.3427 77.3478 17.6353 63.4337 17.171 45.7944C34.7933 46.2592 48.7012 51.9721 54.4086 61.4031C56.6406 65.037 57.5561 69.3287 57.0016 73.5582L48.9083 65.4286C47.298 63.8167 45.1139 62.9112 42.8366 62.9112C40.5592 62.9112 38.3752 63.8167 36.7648 65.4286C35.1545 67.0404 34.2498 69.2266 34.2498 71.5062C34.2498 73.7857 35.1545 75.9719 36.7648 77.5837L44.8652 85.692C40.6513 86.2128 36.3854 85.2877 32.7646 83.0679ZM139.32 75.7891C131.705 80.4009 122.891 81.2732 113.74 78.4775L140.349 51.8505C141.959 50.2387 142.864 48.0525 142.864 45.773C142.864 43.4934 141.959 41.3073 140.349 39.6954C138.738 38.0835 136.554 37.178 134.277 37.178C132 37.178 129.815 38.0835 128.205 39.6954L101.597 66.3223C98.8323 57.1988 99.7037 48.3398 104.283 40.7536C113.354 25.7384 134.748 17.1583 162.371 17.1583H162.857C162.957 45.0437 154.385 66.6226 139.32 75.7891Z" fill="#583400"/>
</svg>
