<svg width="188" height="88" viewBox="0 0 188 88" fill="none" xmlns="http://www.w3.org/2000/svg">
<g clip-path="url(#clip0_449_18)">
<path d="M56.4 39.1111V48.8889C56.4 51.4821 55.0795 53.9691 52.7291 55.8028C50.3786 57.6365 47.1907 58.6667 43.8667 58.6667V29.3333C47.1907 29.3333 50.3786 30.3635 52.7291 32.1972C55.0795 34.0309 56.4 36.5179 56.4 39.1111ZM188 9.77778V78.2222C188 80.8154 186.68 83.3025 184.329 85.1361C181.979 86.9698 178.791 88 175.467 88H12.5333C9.20929 88 6.02138 86.9698 3.67093 85.1361C1.32047 83.3025 0 80.8154 0 78.2222V9.77778C0 7.18455 1.32047 4.69753 3.67093 2.86384C6.02138 1.03016 9.20929 0 12.5333 0H175.467C178.791 0 181.979 1.03016 184.329 2.86384C186.68 4.69753 188 7.18455 188 9.77778ZM68.9333 39.1111C68.9333 33.9247 66.2924 28.9506 61.5915 25.2832C56.8906 21.6159 50.5148 19.5556 43.8667 19.5556H37.6C35.938 19.5556 34.344 20.0706 33.1688 20.9875C31.9936 21.9043 31.3333 23.1478 31.3333 24.4444V63.5556C31.3333 64.8522 31.9936 66.0957 33.1688 67.0125C34.344 67.9294 35.938 68.4444 37.6 68.4444H43.8667C50.5148 68.4444 56.8906 66.3841 61.5915 62.7168C66.2924 59.0494 68.9333 54.0753 68.9333 48.8889V39.1111ZM94 39.1111V29.3333H106.533C108.195 29.3333 109.789 28.8183 110.965 27.9014C112.14 26.9846 112.8 25.7411 112.8 24.4444C112.8 23.1478 112.14 21.9043 110.965 20.9875C109.789 20.0706 108.195 19.5556 106.533 19.5556H87.7333C86.0713 19.5556 84.4774 20.0706 83.3021 20.9875C82.1269 21.9043 81.4667 23.1478 81.4667 24.4444V63.5556C81.4667 64.8522 82.1269 66.0957 83.3021 67.0125C84.4774 67.9294 86.0713 68.4444 87.7333 68.4444H106.533C108.195 68.4444 109.789 67.9294 110.965 67.0125C112.14 66.0957 112.8 64.8522 112.8 63.5556C112.8 62.2589 112.14 61.0154 110.965 60.0986C109.789 59.1817 108.195 58.6667 106.533 58.6667H94V48.8889H100.267C101.929 48.8889 103.523 48.3738 104.698 47.457C105.873 46.5401 106.533 45.2966 106.533 44C106.533 42.7034 105.873 41.4599 104.698 40.543C103.523 39.6262 101.929 39.1111 100.267 39.1111H94ZM158.366 19.7389C156.767 19.3872 155.054 19.5457 153.604 20.1794C152.154 20.8132 151.086 21.8703 150.635 23.1183L142.567 45.4972L134.498 23.1183C134.042 21.8752 132.973 20.8237 131.525 20.1939C130.078 19.5642 128.369 19.4076 126.774 19.7584C125.178 20.1091 123.826 20.9387 123.013 22.0655C122.2 23.1923 121.992 24.5245 122.435 25.7706L136.535 64.8817C136.905 65.9071 137.695 66.8101 138.784 67.4532C139.873 68.0963 141.201 68.4443 142.567 68.4443C143.932 68.4443 145.261 68.0963 146.349 67.4532C147.438 66.8101 148.228 65.9071 148.598 64.8817L162.698 25.7706C163.149 24.5226 162.946 23.186 162.134 22.0548C161.321 20.9237 159.966 20.0906 158.366 19.7389Z" fill="#E8704E"/>
</g>
<defs>
<clipPath id="clip0_449_18">
<rect width="188" height="88" rx="44" fill="white"/>
</clipPath>
</defs>
</svg>
